<svg xmlns="http://www.w3.org/2000/svg" xmlns:xlink="http://www.w3.org/1999/xlink" width="285" zoomAndPan="magnify" viewBox="0 0 213.75 231" height="308" preserveAspectRatio="xMidYMid meet" version="1.0"><defs><g/></defs><g fill="#000000" fill-opacity="1"><g transform="translate(28.766356, 153.855145)"><g><path d="M 95.9375 -0.4375 C 96.21875 -0.4375 96.359375 -0.289062 96.359375 0 C 96.359375 0.382812 96.21875 0.578125 95.9375 0.578125 L 66.734375 0.578125 C 66.453125 0.578125 66.3125 0.382812 66.3125 0 C 66.3125 -0.289062 66.453125 -0.4375 66.734375 -0.4375 C 68.265625 -0.4375 69.367188 -0.960938 70.046875 -2.015625 C 70.804688 -3.160156 70.851562 -4.597656 70.1875 -6.328125 L 60.703125 -30.34375 L 20.421875 -30.34375 L 10.78125 -6.1875 C 10.113281 -4.550781 10.164062 -3.160156 10.9375 -2.015625 C 11.695312 -0.960938 12.796875 -0.4375 14.234375 -0.4375 C 14.617188 -0.4375 14.8125 -0.289062 14.8125 0 C 14.8125 0.289062 14.617188 0.4375 14.234375 0.4375 L 1.296875 0.4375 C 1.003906 0.4375 0.859375 0.289062 0.859375 0 C 0.859375 -0.289062 1.003906 -0.4375 1.296875 -0.4375 C 3.023438 -0.4375 4.726562 -1.035156 6.40625 -2.234375 C 8.082031 -3.429688 9.253906 -4.890625 9.921875 -6.609375 L 19.703125 -30.921875 C 19.703125 -31.015625 19.703125 -31.0625 19.703125 -31.0625 C 19.796875 -31.15625 19.796875 -31.15625 19.703125 -31.0625 C 19.703125 -31.0625 19.75 -31.109375 19.84375 -31.203125 C 19.9375 -31.203125 19.984375 -31.203125 19.984375 -31.203125 C 19.984375 -31.203125 20.035156 -31.203125 20.140625 -31.203125 L 60.265625 -31.203125 L 40.125 -81.84375 C 40.03125 -81.9375 40.03125 -82.03125 40.125 -82.125 L 48.1875 -102.40625 C 48.1875 -102.40625 48.1875 -102.453125 48.1875 -102.546875 C 48.1875 -102.546875 48.234375 -102.546875 48.328125 -102.546875 C 48.328125 -102.640625 48.328125 -102.6875 48.328125 -102.6875 C 48.328125 -102.6875 48.375 -102.6875 48.46875 -102.6875 C 48.46875 -102.6875 48.488281 -102.6875 48.53125 -102.6875 C 48.582031 -102.6875 48.609375 -102.6875 48.609375 -102.6875 C 48.703125 -102.789062 48.703125 -102.789062 48.609375 -102.6875 C 48.609375 -102.789062 48.65625 -102.84375 48.75 -102.84375 C 48.75 -102.84375 48.75 -102.789062 48.75 -102.6875 C 48.851562 -102.6875 48.90625 -102.6875 48.90625 -102.6875 C 49 -102.59375 49.046875 -102.546875 49.046875 -102.546875 C 49.046875 -102.546875 49.046875 -102.519531 49.046875 -102.46875 C 49.046875 -102.425781 49.046875 -102.40625 49.046875 -102.40625 L 87.453125 -6.609375 C 88.117188 -4.890625 89.265625 -3.429688 90.890625 -2.234375 C 92.523438 -1.035156 94.207031 -0.4375 95.9375 -0.4375 Z M 95.9375 -0.4375 "/></g></g></g><g fill="#000000" fill-opacity="1"><g transform="translate(80.450045, 153.106021)"><g><path d="M 98.375 -50.484375 C 98.664062 -50.484375 98.8125 -50.335938 98.8125 -50.046875 C 98.8125 -49.671875 98.664062 -49.484375 98.375 -49.484375 C 96.65625 -49.484375 95.21875 -48.90625 94.0625 -47.75 C 92.914062 -46.601562 92.34375 -45.210938 92.34375 -43.578125 L 92.34375 -14.234375 C 92.34375 -14.140625 92.289062 -14.046875 92.1875 -13.953125 C 87.78125 -9.054688 82.703125 -5.171875 76.953125 -2.296875 C 76.953125 -2.296875 76.898438 -2.296875 76.796875 -2.296875 C 76.703125 -2.296875 76.609375 -2.296875 76.515625 -2.296875 C 76.328125 -2.390625 76.234375 -2.535156 76.234375 -2.734375 L 76.234375 -43.578125 C 76.234375 -45.210938 75.65625 -46.601562 74.5 -47.75 C 73.351562 -48.90625 71.960938 -49.484375 70.328125 -49.484375 C 69.941406 -49.484375 69.75 -49.671875 69.75 -50.046875 C 69.75 -50.335938 69.941406 -50.484375 70.328125 -50.484375 L 91.765625 -50.484375 C 91.765625 -50.484375 91.785156 -50.484375 91.828125 -50.484375 C 91.878906 -50.484375 91.90625 -50.484375 91.90625 -50.484375 Z M 55.953125 1.578125 C 56.234375 1.578125 56.375 1.722656 56.375 2.015625 C 56.375 2.398438 56.234375 2.59375 55.953125 2.59375 C 49.046875 2.59375 42.59375 1.226562 36.59375 -1.5 C 30.601562 -4.238281 25.304688 -8.03125 20.703125 -12.875 C 16.109375 -17.71875 12.515625 -23.328125 9.921875 -29.703125 C 7.335938 -36.078125 6.046875 -42.859375 6.046875 -50.046875 C 6.046875 -57.335938 7.335938 -64.171875 9.921875 -70.546875 C 12.515625 -76.921875 16.109375 -82.53125 20.703125 -87.375 C 25.304688 -92.21875 30.601562 -96.003906 36.59375 -98.734375 C 42.59375 -101.472656 49.046875 -102.84375 55.953125 -102.84375 C 62.953125 -102.84375 69.613281 -101.351562 75.9375 -98.375 C 75.9375 -98.375 75.984375 -98.375 76.078125 -98.375 C 76.847656 -97.988281 77.710938 -97.507812 78.671875 -96.9375 C 78.765625 -96.9375 78.8125 -96.9375 78.8125 -96.9375 C 79.101562 -96.75 79.34375 -96.609375 79.53125 -96.515625 L 79.96875 -96.21875 C 83.414062 -94.300781 86.335938 -94.015625 88.734375 -95.359375 C 90.460938 -96.410156 91.328125 -97.992188 91.328125 -100.109375 C 91.328125 -100.390625 91.519531 -100.53125 91.90625 -100.53125 C 92.195312 -100.53125 92.34375 -100.390625 92.34375 -100.109375 L 92.34375 -80.828125 C 92.34375 -80.546875 92.195312 -80.40625 91.90625 -80.40625 C 91.519531 -80.40625 91.328125 -80.546875 91.328125 -80.828125 C 91.328125 -82.078125 90.703125 -83.660156 89.453125 -85.578125 C 88.210938 -87.492188 86.609375 -89.382812 84.640625 -91.25 C 82.671875 -93.125 80.585938 -94.734375 78.390625 -96.078125 C 78.390625 -96.078125 78.34375 -96.125 78.25 -96.21875 C 77.28125 -96.695312 76.414062 -97.128906 75.65625 -97.515625 C 75.5625 -97.515625 75.515625 -97.515625 75.515625 -97.515625 C 69.273438 -100.390625 62.753906 -101.828125 55.953125 -101.828125 C 51.535156 -101.828125 47.410156 -100.484375 43.578125 -97.796875 C 39.742188 -95.117188 36.335938 -91.40625 33.359375 -86.65625 C 30.390625 -81.90625 28.085938 -76.414062 26.453125 -70.1875 C 24.828125 -63.957031 24.015625 -57.242188 24.015625 -50.046875 C 24.015625 -42.953125 24.828125 -36.289062 26.453125 -30.0625 C 28.085938 -23.832031 30.390625 -18.34375 33.359375 -13.59375 C 36.335938 -8.84375 39.742188 -5.125 43.578125 -2.4375 C 47.410156 0.238281 51.535156 1.578125 55.953125 1.578125 Z M 55.953125 1.578125 "/></g></g></g></svg>